<svg width="16" height="16" viewBox="0 0 16 16" fill="none" xmlns="http://www.w3.org/2000/svg">
<path d="M3.15176 6.19201C3.30356 6.29913 3.76114 6.61727 4.52452 7.14627C5.28792 7.67526 5.87273 8.08257 6.27899 8.36823C6.32363 8.39954 6.41845 8.4676 6.56352 8.57252C6.70861 8.6775 6.82917 8.76234 6.9251 8.82705C7.0211 8.89174 7.13715 8.9643 7.27337 9.04464C7.40955 9.1249 7.53792 9.18527 7.65845 9.22524C7.77901 9.26553 7.89061 9.28549 7.99327 9.28549H8H8.00675C8.10941 9.28549 8.22106 9.26551 8.34161 9.22524C8.4621 9.18527 8.59059 9.12483 8.72665 9.04464C8.86278 8.96421 8.97883 8.89171 9.07483 8.82705C9.17083 8.76234 9.29129 8.6775 9.43643 8.57252C9.58147 8.46751 9.67642 8.39954 9.72105 8.36823C10.1317 8.08257 11.1764 7.3571 12.8549 6.19187C13.1808 5.96429 13.4531 5.68969 13.6718 5.36824C13.8907 5.04694 14 4.70987 14 4.35723C14 4.06254 13.8939 3.81029 13.6818 3.60049C13.4698 3.39064 13.2186 3.28577 12.9285 3.28577H3.07138C2.72766 3.28577 2.46314 3.40183 2.27787 3.63393C2.09262 3.86609 2 4.15627 2 4.50445C2 4.7857 2.12281 5.09047 2.36831 5.41857C2.61378 5.7467 2.87502 6.00454 3.15176 6.19201Z" fill="#8F8F8F"/>
<path d="M13.3303 6.90845C11.8661 7.89943 10.7544 8.66958 9.99555 9.21875C9.74109 9.40618 9.53467 9.55249 9.37614 9.65733C9.21761 9.76224 9.00678 9.86938 8.74333 9.9787C8.47999 10.0882 8.23456 10.1428 8.00684 10.1428H8.00001H7.99328C7.76561 10.1428 7.52004 10.0882 7.25669 9.9787C6.99334 9.86938 6.78237 9.76224 6.62388 9.65733C6.46545 9.55249 6.25895 9.40618 6.00452 9.21875C5.40181 8.77682 4.29245 8.00662 2.67641 6.90845C2.42188 6.73892 2.19643 6.5446 2 6.32588V11.6427C2 11.9375 2.10487 12.1896 2.31471 12.3995C2.52451 12.6094 2.77679 12.7143 3.07145 12.7143H12.9286C13.2232 12.7143 13.4755 12.6094 13.6853 12.3995C13.8952 12.1896 14 11.9375 14 11.6427V6.32588C13.808 6.54007 13.5849 6.73439 13.3303 6.90845Z" fill="#8F8F8F"/>
</svg>
