<svg width="12" height="12" viewBox="0 0 12 12" fill="none" xmlns="http://www.w3.org/2000/svg">
<path d="M6 1.081C4.398 1.081 4.208 1.087 3.5755 1.116C2.8925 1.147 2.259 1.284 1.7715 1.7715C1.284 2.259 1.147 2.8925 1.116 3.5755C1.087 4.208 1.081 4.398 1.081 6C1.081 7.602 1.087 7.792 1.116 8.4245C1.147 9.1075 1.284 9.741 1.7715 10.2285C2.259 10.716 2.8925 10.853 3.5755 10.884C4.208 10.913 4.398 10.919 6 10.919C7.602 10.919 7.792 10.913 8.4245 10.884C9.1075 10.853 9.741 10.716 10.2285 10.2285C10.716 9.741 10.853 9.1075 10.884 8.4245C10.913 7.792 10.919 7.602 10.919 6C10.919 4.398 10.913 4.208 10.884 3.5755C10.853 2.8925 10.716 2.259 10.2285 1.7715C9.741 1.284 9.1075 1.147 8.4245 1.116C7.792 1.087 7.602 1.081 6 1.081ZM6 0C7.6295 0 7.834 0.007 8.474 0.036C9.449 0.0805 10.3055 0.3195 10.993 1.007C11.6805 1.6945 11.9195 2.551 11.964 3.526C11.993 4.166 12 4.3705 12 6C12 7.6295 11.993 7.834 11.964 8.474C11.9195 9.449 11.6805 10.3055 10.993 10.993C10.3055 11.6805 9.449 11.9195 8.474 11.964C7.834 11.993 7.6295 12 6 12C4.3705 12 4.166 11.993 3.526 11.964C2.551 11.9195 1.6945 11.6805 1.007 10.993C0.3195 10.3055 0.0805 9.449 0.036 8.474C0.007 7.834 0 7.6295 0 6C0 4.3705 0.007 4.166 0.036 3.526C0.0805 2.551 0.3195 1.6945 1.007 1.007C1.6945 0.3195 2.551 0.0805 3.526 0.036C4.166 0.007 4.3705 0 6 0ZM6 2.919C7.7015 2.919 9.081 4.2985 9.081 6C9.081 7.7015 7.7015 9.081 6 9.081C4.2985 9.081 2.919 7.7015 2.919 6C2.919 4.2985 4.2985 2.919 6 2.919ZM6 8C7.1045 8 8 7.1045 8 6C8 4.8955 7.1045 4 6 4C4.8955 4 4 4.8955 4 6C4 7.1045 4.8955 8 6 8ZM9.203 3.517C8.80536 3.517 8.483 3.19465 8.483 2.797C8.483 2.39935 8.80536 2.077 9.203 2.077C9.60065 2.077 9.923 2.39935 9.923 2.797C9.923 3.19465 9.60065 3.517 9.203 3.517Z" fill="#8F8F8F"/>
</svg>
